<svg width="825" height="562" viewBox="0 0 825 562" fill="none" xmlns="http://www.w3.org/2000/svg">
<path d="M10.9715 43.7949H225.275C228.184 43.7982 230.973 44.9552 233.03 47.012C235.087 49.0689 236.243 51.8576 236.247 54.7664V372.545C236.243 375.454 235.087 378.242 233.03 380.299C230.973 382.356 228.184 383.513 225.275 383.516H10.9715C8.06268 383.513 5.27395 382.356 3.21711 380.299C1.16026 378.242 0.00327003 375.454 0 372.545V54.7664C0.00328807 51.8576 1.16028 49.0688 3.21712 47.012C5.27397 44.9552 8.06269 43.7982 10.9715 43.7949Z" fill="#F2F2F2"/>
<path d="M13.6314 51.7739H222.616C224.114 51.7756 225.551 52.3716 226.61 53.4312C227.67 54.4908 228.266 55.9274 228.268 57.4259V369.885C228.266 371.383 227.67 372.82 226.61 373.879C225.551 374.939 224.114 375.535 222.616 375.537H13.6314C12.133 375.535 10.6963 374.939 9.63675 373.879C8.57717 372.82 7.98116 371.383 7.97949 369.885V57.4259C7.98116 55.9274 8.57717 54.4908 9.63675 53.4312C10.6963 52.3716 12.133 51.7756 13.6314 51.7739Z" fill="white"/>
<path d="M158.862 168.478C158.862 188.565 140.288 185.527 117.376 185.527C94.4643 185.527 75.8906 188.565 75.8906 168.478C75.8906 148.391 84.9634 112.785 117.376 112.785C150.906 112.785 158.862 148.391 158.862 168.478Z" fill="#1F1F1F"/>
<path d="M207.664 338.51C208.495 336.93 208.97 335.187 209.055 333.404C209.14 331.621 208.832 329.841 208.155 328.19C207.477 326.539 206.446 325.056 205.133 323.846C203.821 322.637 202.259 321.729 200.557 321.189L153.03 220.647L131.289 235.892L184.844 329.927C184.125 332.845 184.501 335.926 185.901 338.585C187.302 341.244 189.629 343.297 192.442 344.355C195.255 345.413 198.358 345.402 201.164 344.325C203.969 343.247 206.282 341.179 207.664 338.51Z" fill="#743D2B"/>
<path d="M166.307 229.479L163.591 225.228L162.204 223.046L151.532 206.316C149.888 202.643 146.856 199.771 143.099 198.331C139.342 196.89 135.167 196.997 131.49 198.629C127.812 200.261 124.931 203.285 123.479 207.037C122.027 210.79 122.121 214.965 123.742 218.648L126.186 227.365L131.175 245.187C131.478 246.284 132.123 247.255 133.017 247.96C133.355 248.244 133.729 248.48 134.13 248.665C134.829 248.995 135.589 249.172 136.361 249.186C137.133 249.2 137.899 249.049 138.608 248.744C138.631 248.733 138.666 248.722 138.688 248.71L151.6 242.936L151.623 242.925L161.477 238.515L163.932 237.424C164.636 237.111 165.264 236.65 165.773 236.071C166.313 235.475 166.709 234.764 166.932 233.992C167.163 233.239 167.226 232.446 167.118 231.666C167.01 230.887 166.734 230.141 166.307 229.479Z" fill="#CCCCCC"/>
<path d="M98.1919 372.03C97.7091 371.228 97.0291 370.564 96.2169 370.1C95.4046 369.636 94.487 369.387 93.5516 369.378C92.6161 369.369 91.6939 369.6 90.8728 370.048C90.0516 370.496 89.3589 371.147 88.8605 371.939C88.6452 372.263 88.4733 372.615 88.3494 372.984L87.7012 374.769H99.8401L98.1919 372.03Z" fill="#1F1F1F"/>
<path d="M117.115 184.374C132.533 184.374 145.031 171.876 145.031 156.458C145.031 141.041 132.533 128.542 117.115 128.542C101.698 128.542 89.1992 141.041 89.1992 156.458C89.1992 171.876 101.698 184.374 117.115 184.374Z" fill="#743D2B"/>
<path d="M166.046 239.027C165.978 238.026 165.887 237.038 165.774 236.071C165.371 232.399 164.64 228.771 163.591 225.228C163.375 224.456 163.137 223.705 162.875 222.967C159.552 213.172 153.776 204.392 146.099 197.462C143.06 194.738 139.122 193.232 135.04 193.233H95.7143C93.2995 193.234 90.9139 193.762 88.7244 194.78C86.5349 195.799 84.5944 197.283 83.0387 199.13C81.483 200.977 80.3496 203.142 79.7179 205.473C79.0861 207.803 78.9713 210.244 79.3814 212.624C79.3697 212.635 79.3697 212.635 79.3814 212.646C79.6589 214.235 80.1683 215.775 80.8931 217.215L82.4843 220.387L93.1453 241.709L106.409 268.237L107.182 269.783L156.613 283.376L156.817 282.91C156.999 282.501 157.192 282.081 157.363 281.671C157.636 281.058 157.897 280.444 158.159 279.842C162.561 269.827 165.236 259.14 166.069 248.233V248.222C166.255 245.159 166.248 242.088 166.046 239.027Z" fill="#E2522E"/>
<path d="M158.158 279.841C157.99 279.263 157.725 278.717 157.374 278.227C156.101 276.525 154.58 275.023 152.862 273.772L152.851 273.761C146.861 269.214 134.972 263.918 112.002 263.781H111.967C110.915 263.782 109.884 264.086 109 264.656C108.115 265.227 107.413 266.039 106.977 266.998L106.409 268.237L102.75 276.284C102.437 276.972 101.947 277.565 101.329 278C95.521 282.114 67.3905 305.187 83.9049 355.845C85.5187 360.789 87.1781 366.188 88.8602 371.939C89.1333 372.871 89.4061 373.814 89.6788 374.769H139.189L138.131 366.813C138.061 366.294 138.088 365.765 138.211 365.256L158.136 283.035L158.227 282.683C158.454 281.746 158.431 280.766 158.158 279.841Z" fill="#1F1F1F"/>
<path d="M173.695 187.8H195.29C196.194 187.8 197.062 188.16 197.701 188.799C198.341 189.438 198.7 190.306 198.7 191.21V196.893C199.001 196.894 199.29 197.014 199.503 197.227C199.716 197.44 199.836 197.728 199.836 198.03V200.303C199.836 200.604 199.716 200.892 199.503 201.105C199.29 201.318 199.001 201.438 198.7 201.439V203.713C199.001 203.713 199.29 203.834 199.503 204.046C199.716 204.259 199.836 204.548 199.836 204.849V207.122C199.836 207.423 199.716 207.712 199.503 207.925C199.29 208.138 199.001 208.258 198.7 208.259V238.947C198.7 239.851 198.341 240.718 197.701 241.358C197.062 241.997 196.194 242.357 195.29 242.357H173.695C172.791 242.357 171.923 241.997 171.284 241.358C170.644 240.718 170.285 239.851 170.285 238.947V191.21C170.285 190.306 170.644 189.438 171.284 188.799C171.923 188.16 172.791 187.8 173.695 187.8Z" fill="#E2522E"/>
<path d="M172.558 238.947V191.21C172.558 190.306 172.918 189.438 173.557 188.799C174.197 188.16 175.064 187.8 175.968 187.8H173.695C172.791 187.8 171.923 188.16 171.284 188.799C170.644 189.438 170.285 190.306 170.285 191.21V238.947C170.285 239.851 170.644 240.718 171.284 241.358C171.923 241.997 172.791 242.357 173.695 242.357H175.968C175.064 242.357 174.197 241.997 173.557 241.358C172.918 240.718 172.558 239.851 172.558 238.947Z" fill="#E2522E"/>
<path d="M183.924 208.259C186.435 208.259 188.471 206.223 188.471 203.712C188.471 201.201 186.435 199.166 183.924 199.166C181.413 199.166 179.378 201.201 179.378 203.712C179.378 206.223 181.413 208.259 183.924 208.259Z" fill="white"/>
<path d="M178.157 219.64C177.787 220.149 177.459 220.687 177.174 221.247L121.209 227.97L112.98 217.026L94.8389 227.287L107.525 248.078C108.55 249.758 110.092 251.06 111.92 251.788C113.748 252.517 115.763 252.633 117.662 252.119L179.564 235.371C181.323 237.037 183.548 238.128 185.942 238.499C188.336 238.869 190.787 238.502 192.968 237.447C195.148 236.391 196.956 234.696 198.15 232.588C199.344 230.48 199.868 228.058 199.652 225.645C199.436 223.232 198.49 220.942 196.941 219.079C195.392 217.216 193.312 215.869 190.979 215.217C188.645 214.565 186.168 214.639 183.878 215.429C181.588 216.219 179.592 217.688 178.157 219.64Z" fill="#743D2B"/>
<path d="M120.742 220.966L105.056 200.644C103.306 197.512 100.436 195.158 97.0215 194.056C93.6074 192.954 89.9027 193.184 86.6515 194.701C83.4003 196.218 80.8436 198.909 79.495 202.234C78.1463 205.558 78.1056 209.27 79.3811 212.623C79.3694 212.635 79.3694 212.635 79.3811 212.646C79.6149 213.265 79.896 213.866 80.2219 214.442L82.484 220.386L89.3601 238.515C89.62 239.203 90.0259 239.826 90.5499 240.342C91.0739 240.858 91.7034 241.255 92.3953 241.504C92.6389 241.593 92.8898 241.662 93.145 241.709C94.336 241.952 95.5748 241.758 96.6347 241.163L101.613 238.378L119.185 228.558C119.824 228.196 120.378 227.701 120.812 227.107C121.245 226.513 121.546 225.834 121.696 225.114C121.844 224.395 121.835 223.652 121.67 222.936C121.506 222.22 121.189 221.548 120.742 220.966Z" fill="#E2522E"/>
<path d="M84.9834 161.658H96.0246L100.896 144.872L101.87 161.658H107.147L109.988 151.866L110.557 161.658H149.769C149.769 141.571 136.538 125.288 120.218 125.288H114.535C98.214 125.288 84.9834 141.571 84.9834 161.658Z" fill="#1F1F1F"/>
<path d="M408.771 140.32H177.374C174.465 140.317 171.676 139.16 169.619 137.103C167.563 135.046 166.406 132.257 166.402 129.349V11.6551C166.406 8.74627 167.563 5.95753 169.619 3.90068C171.676 1.84383 174.465 0.686864 177.374 0.683594H408.771C411.68 0.686861 414.469 1.84383 416.526 3.90068C418.583 5.95753 419.74 8.74627 419.743 11.6551V129.349C419.74 132.257 418.583 135.046 416.526 137.103C414.469 139.16 411.68 140.317 408.771 140.32Z" fill="#CCCCCC"/>
<path d="M406.112 132.341H180.034C178.535 132.339 177.099 131.743 176.039 130.684C174.98 129.624 174.384 128.188 174.382 126.689V14.315C174.384 12.8166 174.98 11.3799 176.039 10.3203C177.099 9.26076 178.535 8.66476 180.034 8.66309H406.112C407.61 8.66476 409.047 9.26076 410.107 10.3203C411.166 11.3799 411.762 12.8166 411.764 14.315V126.689C411.762 128.188 411.166 129.624 410.107 130.684C409.047 131.743 407.61 132.339 406.112 132.341Z" fill="white"/>
<path d="M191.248 161.954C190.687 161.953 190.132 161.84 189.614 161.623C188.841 161.313 188.18 160.776 187.718 160.084C187.255 159.391 187.012 158.575 187.021 157.742V136.111L219.618 135.287L194.192 160.713C193.808 161.104 193.35 161.415 192.845 161.629C192.339 161.842 191.797 161.952 191.248 161.954Z" fill="#CCCCCC"/>
<path d="M378.586 65.4622H264.217C263.518 65.4632 262.825 65.3264 262.179 65.0595C261.533 64.7927 260.945 64.401 260.45 63.9069C259.956 63.4128 259.563 62.8261 259.295 62.1802C259.027 61.5343 258.89 60.8419 258.89 60.1427C258.89 59.4435 259.027 58.7511 259.295 58.1053C259.563 57.4594 259.956 56.8726 260.45 56.3785C260.945 55.8845 261.533 55.4928 262.179 55.2259C262.825 54.9591 263.518 54.8222 264.217 54.8232H378.586C379.997 54.8232 381.35 55.3837 382.347 56.3813C383.345 57.3789 383.905 58.7319 383.905 60.1427C383.905 61.5535 383.345 62.9066 382.347 63.9042C381.35 64.9018 379.997 65.4622 378.586 65.4622Z" fill="#CCCCCC"/>
<path d="M341.35 42.8548H264.217C262.806 42.8548 261.453 42.2943 260.456 41.2967C259.458 40.2991 258.897 38.9461 258.897 37.5353C258.897 36.1245 259.458 34.7715 260.456 33.7739C261.453 32.7763 262.806 32.2158 264.217 32.2158H341.35C342.76 32.2158 344.113 32.7763 345.111 33.7739C346.109 34.7715 346.669 36.1245 346.669 37.5353C346.669 38.9461 346.109 40.2991 345.111 41.2967C344.113 42.2943 342.76 42.8548 341.35 42.8548Z" fill="#CCCCCC"/>
<path d="M216.873 65.4626C226.054 65.4626 233.497 58.0201 233.497 48.8392C233.497 39.6584 226.054 32.2158 216.873 32.2158C207.693 32.2158 200.25 39.6584 200.25 48.8392C200.25 58.0201 207.693 65.4626 216.873 65.4626Z" fill="#E2522E"/>
<path d="M343.341 108.787C346.279 108.787 348.66 106.406 348.66 103.468C348.66 100.53 346.279 98.1484 343.341 98.1484C340.403 98.1484 338.021 100.53 338.021 103.468C338.021 106.406 340.403 108.787 343.341 108.787Z" fill="#E6E6E6"/>
<path d="M361.959 108.787C364.897 108.787 367.279 106.406 367.279 103.468C367.279 100.53 364.897 98.1484 361.959 98.1484C359.021 98.1484 356.64 100.53 356.64 103.468C356.64 106.406 359.021 108.787 361.959 108.787Z" fill="#E6E6E6"/>
<path d="M380.577 108.787C383.515 108.787 385.897 106.406 385.897 103.468C385.897 100.53 383.515 98.1484 380.577 98.1484C377.639 98.1484 375.258 100.53 375.258 103.468C375.258 106.406 377.639 108.787 380.577 108.787Z" fill="#E6E6E6"/>
<path d="M599.724 222.239H814.028C816.937 222.243 819.726 223.4 821.783 225.456C823.839 227.513 824.996 230.302 825 233.211V550.989C824.996 553.898 823.839 556.687 821.783 558.744C819.726 560.8 816.937 561.957 814.028 561.961H599.724C596.816 561.957 594.027 560.8 591.97 558.744C589.913 556.687 588.756 553.898 588.753 550.989V233.211C588.756 230.302 589.913 227.513 591.97 225.456C594.027 223.4 596.816 222.243 599.724 222.239Z" fill="#F2F2F2"/>
<path d="M602.384 230.219H811.369C812.867 230.22 814.304 230.816 815.363 231.876C816.423 232.936 817.019 234.372 817.021 235.871V548.33C817.019 549.828 816.423 551.265 815.363 552.324C814.304 553.384 812.867 553.98 811.369 553.982H602.384C600.886 553.98 599.449 553.384 598.39 552.324C597.33 551.265 596.734 549.828 596.732 548.33V235.871C596.734 234.372 597.33 232.936 598.39 231.876C599.449 230.816 600.886 230.22 602.384 230.219Z" fill="white"/>
<path d="M608.727 383.13H377.329C374.42 383.126 371.631 381.969 369.575 379.913C367.518 377.856 366.361 375.067 366.357 372.158V254.465C366.361 251.556 367.518 248.767 369.575 246.71C371.631 244.653 374.42 243.496 377.329 243.493H608.727C611.635 243.496 614.424 244.653 616.481 246.71C618.538 248.767 619.695 251.556 619.698 254.465V372.158C619.695 375.067 618.538 377.856 616.481 379.913C614.424 381.969 611.635 383.126 608.727 383.13Z" fill="#CCCCCC"/>
<path d="M606.066 375.151H379.988C378.489 375.149 377.053 374.553 375.993 373.493C374.934 372.434 374.338 370.997 374.336 369.499V257.125C374.338 255.626 374.934 254.19 375.993 253.13C377.053 252.07 378.489 251.474 379.988 251.473H606.066C607.565 251.474 609.001 252.07 610.061 253.13C611.12 254.19 611.716 255.626 611.718 257.125V369.499C611.716 370.997 611.12 372.434 610.061 373.493C609.001 374.553 607.565 375.149 606.066 375.151Z" fill="white"/>
<path d="M592.974 403.522L567.548 378.097L600.145 378.921V400.552C600.154 401.385 599.911 402.201 599.448 402.893C598.986 403.586 598.325 404.123 597.552 404.433C597.034 404.65 596.479 404.762 595.918 404.764C595.369 404.762 594.827 404.651 594.321 404.438C593.816 404.225 593.358 403.914 592.974 403.522Z" fill="#CCCCCC"/>
<path d="M578.54 308.272H464.171C463.472 308.273 462.779 308.136 462.133 307.87C461.487 307.603 460.899 307.211 460.404 306.717C459.91 306.223 459.517 305.636 459.249 304.99C458.982 304.344 458.844 303.652 458.844 302.953C458.844 302.254 458.982 301.561 459.249 300.915C459.517 300.269 459.91 299.683 460.404 299.189C460.899 298.695 461.487 298.303 462.133 298.036C462.779 297.769 463.472 297.632 464.171 297.633H578.54C579.239 297.632 579.932 297.769 580.578 298.036C581.224 298.303 581.812 298.695 582.306 299.189C582.801 299.683 583.194 300.269 583.461 300.915C583.729 301.561 583.867 302.254 583.867 302.953C583.867 303.652 583.729 304.344 583.461 304.99C583.194 305.636 582.801 306.223 582.306 306.717C581.812 307.211 581.224 307.603 580.578 307.87C579.932 308.136 579.239 308.273 578.54 308.272Z" fill="#CCCCCC"/>
<path d="M541.304 285.664H464.171C463.472 285.664 462.781 285.527 462.135 285.259C461.49 284.992 460.904 284.6 460.41 284.106C459.916 283.612 459.524 283.026 459.256 282.381C458.989 281.735 458.852 281.043 458.852 280.345C458.852 279.646 458.989 278.955 459.256 278.309C459.524 277.664 459.916 277.077 460.41 276.583C460.904 276.089 461.49 275.698 462.135 275.43C462.781 275.163 463.472 275.025 464.171 275.025H541.304C542.714 275.025 544.067 275.586 545.065 276.583C546.063 277.581 546.623 278.934 546.623 280.345C546.623 281.756 546.063 283.109 545.065 284.106C544.067 285.104 542.714 285.664 541.304 285.664Z" fill="#CCCCCC"/>
<path d="M416.827 308.272C426.008 308.272 433.451 300.83 433.451 291.649C433.451 282.468 426.008 275.025 416.827 275.025C407.647 275.025 400.204 282.468 400.204 291.649C400.204 300.83 407.647 308.272 416.827 308.272Z" fill="#E2522E"/>
<path d="M543.295 351.597C546.233 351.597 548.615 349.216 548.615 346.278C548.615 343.34 546.233 340.958 543.295 340.958C540.357 340.958 537.976 343.34 537.976 346.278C537.976 349.216 540.357 351.597 543.295 351.597Z" fill="#E6E6E6"/>
<path d="M561.913 351.597C564.851 351.597 567.233 349.216 567.233 346.278C567.233 343.34 564.851 340.958 561.913 340.958C558.975 340.958 556.594 343.34 556.594 346.278C556.594 349.216 558.975 351.597 561.913 351.597Z" fill="#E6E6E6"/>
<path d="M580.531 351.597C583.469 351.597 585.851 349.216 585.851 346.278C585.851 343.34 583.469 340.958 580.531 340.958C577.594 340.958 575.212 343.34 575.212 346.278C575.212 349.216 577.594 351.597 580.531 351.597Z" fill="#E6E6E6"/>
<path d="M611.269 454.365C612.19 452.971 613.405 451.796 614.829 450.922C616.254 450.048 617.852 449.498 619.512 449.309C621.172 449.12 622.854 449.297 624.438 449.828C626.022 450.359 627.471 451.231 628.682 452.383L664.773 433.754L662.53 454.74L628.6 469.213C626.531 471.119 623.835 472.2 621.022 472.25C618.209 472.301 615.476 471.318 613.339 469.487C611.203 467.657 609.812 465.107 609.43 462.32C609.049 459.533 609.703 456.702 611.269 454.365Z" fill="#743D2B"/>
<path d="M723.646 361.062C720.846 358.871 717.413 357.645 713.859 357.565C710.305 357.485 706.821 358.556 703.926 360.619C702.62 361.557 701.453 362.674 700.459 363.938L668.771 422.711L639.527 444.806C638.558 445.536 637.881 446.588 637.617 447.773C637.418 448.641 637.454 449.547 637.719 450.398L640.595 459.673C640.903 460.669 641.505 461.549 642.323 462.196C642.642 462.435 642.985 462.641 643.346 462.81C643.389 462.833 643.435 462.852 643.482 462.867C644.12 463.14 644.807 463.281 645.501 463.279C646.195 463.277 646.881 463.133 647.517 462.855L681.797 447.989L682.172 447.818C693.726 442.705 703.056 433.609 708.461 422.188L726.487 384.146C729.159 380.704 730.359 376.343 729.827 372.018C729.295 367.693 727.072 363.754 723.646 361.062Z" fill="#E2522E"/>
<path d="M727.278 339.404C742.696 339.404 755.194 326.906 755.194 311.488C755.194 296.071 742.696 283.572 727.278 283.572C711.861 283.572 699.362 296.071 699.362 311.488C699.362 326.906 711.861 339.404 727.278 339.404Z" fill="#743D2B"/>
<path d="M746.173 498.169L745.888 495.998L744.57 486.098L743.126 475.289L738.001 476.164L736.023 476.494L734.023 476.835L733.363 476.949L682.512 485.587L676.181 481.779L676.045 481.699L676.102 482.279L677.295 494.657L682.989 553.782H753.594L746.173 498.169Z" fill="#1F1F1F"/>
<path d="M765.721 384.59C764.816 374.464 760.031 365.081 752.367 358.403C744.99 351.87 735.322 348.534 725.486 349.128C716.109 349.753 708.904 353.606 703.925 360.619C701.364 364.373 699.472 368.541 698.333 372.94C692.673 393.307 686.706 423.143 682.171 447.818C679.625 461.594 677.534 473.767 676.181 481.78C676.159 481.95 676.136 482.109 676.102 482.28C675.579 485.405 675.181 487.849 674.92 489.474C674.754 490.476 674.892 491.505 675.315 492.429C675.738 493.352 676.428 494.128 677.295 494.657C677.306 494.668 677.329 494.68 677.341 494.691C683.077 498.123 689.626 499.963 696.31 500.022C704.403 500.022 714.109 497.203 724.327 488.099C725.021 487.469 725.914 487.102 726.851 487.062C727.788 487.023 728.709 487.313 729.453 487.883L730.567 488.747L741.569 497.305C742.428 497.977 743.48 498.355 744.57 498.385C745.113 498.409 745.655 498.336 746.173 498.169C746.219 498.163 746.265 498.152 746.309 498.135C747.102 497.877 747.819 497.428 748.398 496.827C748.977 496.227 749.399 495.493 749.628 494.691C750.241 492.554 750.923 490.088 751.673 487.337C751.98 486.19 752.298 484.985 752.628 483.734C754.071 478.211 755.674 471.8 757.243 464.822C762.721 440.43 767.926 409.095 765.721 384.59Z" fill="#E2522E"/>
<path d="M719.751 501.084C719.615 499.419 719.846 497.744 720.428 496.178C721.009 494.611 721.927 493.191 723.117 492.018C724.307 490.845 725.739 489.947 727.313 489.387C728.888 488.827 730.566 488.62 732.229 488.779L749.132 451.847L760.318 469.745L742.552 502.072C742.099 504.849 740.645 507.363 738.462 509.138C736.28 510.914 733.523 511.827 730.712 511.706C727.902 511.584 725.234 510.435 723.213 508.478C721.193 506.52 719.961 503.89 719.751 501.084Z" fill="#743D2B"/>
<path d="M776.372 415.789L767.075 374.724C767.052 370.673 765.541 366.772 762.829 363.762C760.117 360.753 756.394 358.846 752.367 358.402C751.788 358.346 751.197 358.312 750.594 358.312C748.423 358.317 746.275 358.751 744.272 359.587C742.269 360.424 740.451 361.648 738.921 363.188C737.391 364.728 736.18 366.555 735.358 368.564C734.535 370.572 734.116 372.724 734.125 374.894L745.468 440.691L745.435 440.828L739.422 463.526L736.091 476.13C736.057 476.249 736.034 476.371 736.023 476.494C735.81 477.551 735.95 478.649 736.421 479.62C736.799 480.434 737.388 481.132 738.126 481.643L744.57 486.098L746.105 487.167C746.958 487.761 747.974 488.079 749.015 488.076C749.416 488.075 749.817 488.03 750.208 487.94C750.253 487.928 750.287 487.917 750.333 487.905C750.805 487.782 751.257 487.591 751.674 487.337C752.448 486.868 753.084 486.201 753.516 485.405L771.314 452.546C777.394 441.31 779.191 428.25 776.372 415.789Z" fill="#E2522E"/>
<path opacity="0.2" d="M736.388 402.639L746.617 445.83L731.842 482.2L742.071 446.966L736.388 402.639Z" fill="#1F1F1F"/>
<path d="M749.871 328.265C752.21 327.431 754.361 326.142 756.199 324.472C757.012 323.747 757.885 323.073 758.696 322.348C765.854 315.946 768.004 304.936 764.811 295.879C761.617 286.822 753.674 279.86 744.597 276.722C735.52 273.585 725.46 274.013 716.244 276.713C706.316 279.622 696.374 286.172 694.017 296.244C693.389 298.926 693.365 301.9 695.191 304.162C695.74 304.845 696.459 305.372 697.275 305.69C700.492 306.923 702.285 304.406 704.686 303.337C707.986 301.867 712.048 303.454 714.345 306.242C716.643 309.03 717.493 312.734 717.846 316.329C717.917 318.546 718.265 320.745 718.881 322.876C719.201 323.94 719.788 324.904 720.586 325.678C721.384 326.451 722.366 327.008 723.439 327.296C726.029 327.774 728.519 325.991 730.149 323.922C731.778 321.853 732.933 319.396 734.858 317.599C736.783 315.802 739.924 314.854 742.034 316.429C742.741 317.025 743.337 317.741 743.796 318.544C747.03 323.513 746.636 323.297 749.871 328.265Z" fill="#1F1F1F"/>
<path d="M616.183 430.465L596.489 439.325C595.665 439.696 595.021 440.38 594.7 441.225C594.379 442.071 594.408 443.009 594.779 443.834L597.11 449.016C596.836 449.141 596.622 449.369 596.515 449.65C596.409 449.932 596.417 450.244 596.54 450.519L597.473 452.592C597.597 452.866 597.825 453.08 598.107 453.187C598.388 453.294 598.701 453.285 598.976 453.162L599.908 455.235C599.634 455.36 599.42 455.588 599.313 455.869C599.207 456.151 599.215 456.463 599.338 456.738L600.271 458.811C600.395 459.085 600.623 459.299 600.905 459.406C601.186 459.513 601.499 459.504 601.774 459.381L614.365 487.367C614.736 488.192 615.419 488.836 616.265 489.156C617.11 489.477 618.049 489.449 618.873 489.078L638.567 480.218C639.392 479.847 640.035 479.163 640.356 478.318C640.677 477.472 640.649 476.534 640.278 475.709L620.692 432.175C620.321 431.351 619.637 430.707 618.792 430.386C617.946 430.065 617.008 430.094 616.183 430.465Z" fill="#E2522E"/>
<path d="M636.628 473.141L633.855 466.97L626.581 450.807L620.193 436.611C619.838 435.82 619.184 435.203 618.374 434.894C617.565 434.585 616.665 434.61 615.874 434.963L605.031 439.839L600.064 442.078C599.276 442.436 598.662 443.091 598.355 443.9C598.049 444.709 598.074 445.607 598.427 446.397L605.031 461.082L607.566 466.708L614.862 482.939C615.222 483.728 615.879 484.343 616.69 484.649C617.502 484.956 618.401 484.929 619.193 484.575L634.991 477.46C635.78 477.103 636.395 476.448 636.702 475.639C637.008 474.829 636.982 473.931 636.628 473.141Z" fill="#E2522E"/>
</svg>
